<?xml version="1.0" encoding="utf-8"?>
<!-- Generator: Adobe Illustrator 23.0.1, SVG Export Plug-In . SVG Version: 6.00 Build 0)  -->
<svg version="1.1" id="Layer_1" xmlns="http://www.w3.org/2000/svg" xmlns:xlink="http://www.w3.org/1999/xlink" x="0px" y="0px"
	 viewBox="0 0 16 13" style="enable-background:new 0 0 16 13;" xml:space="preserve">
<style type="text/css">
	.st0{fill:none;}
	.st1{fill:#5BC461;}
	.st2{fill:url(#SVGID_1_);}
</style>
<pattern  y="13" width="47" height="46" patternUnits="userSpaceOnUse" id="New_Pattern_Swatch_3" viewBox="0 -46 47 46" style="overflow:visible;">
	<g>
		<rect y="-46" class="st0" width="47" height="46"/>
		<rect y="-46" class="st1" width="47" height="46"/>
	</g>
</pattern>
<pattern  id="SVGID_1_" xlink:href="#New_Pattern_Swatch_3" patternTransform="matrix(1 0 0 1 -12 -41)">
</pattern>
<path class="st2" d="M1.6,0C0.7,0,0,0.7,0,1.6v8.8C0,11.3,0.7,12,1.6,12v0.8h1.6V12H12v0.8h1.6V12c0.9,0,1.6-0.7,1.6-1.6l0,0V9.6H16
	V8h-0.8V4H16V2.4h-0.8V1.6c0-0.9-0.7-1.6-1.6-1.6C13.6,0,1.6,0,1.6,0z M1.6,1.6h12v8.8h-12C1.6,10.4,1.6,1.6,1.6,1.6z M9.2,2.8
	C7.4,2.8,6,4.2,6,6s1.4,3.2,3.2,3.2s3.2-1.4,3.2-3.2S11,2.8,9.2,2.8z M2.4,4v4H4V4H2.4z M9.2,4.4c0.9,0,1.6,0.7,1.6,1.6
	s-0.7,1.6-1.6,1.6C8.3,7.6,7.6,6.9,7.6,6S8.3,4.4,9.2,4.4z"/>
</svg>
